<svg width="20" height="16" viewBox="0 0 20 16" fill="none" xmlns="http://www.w3.org/2000/svg">
<path d="M19.707 8.70707L12.707 15.7071C12.512 15.9021 12.256 16 12 16C11.744 16 11.488 15.9021 11.293 15.7071C10.902 15.3161 10.902 14.684 11.293 14.293L16.586 9.00004H1C0.447 9.00004 0 8.55304 0 8.00004C0 7.44704 0.447 7.00004 1 7.00004H16.586L11.293 1.70707C10.902 1.31607 10.902 0.684006 11.293 0.293006C11.684 -0.0979941 12.316 -0.0979941 12.707 0.293006L19.707 7.29301C20.098 7.68401 20.098 8.31607 19.707 8.70707Z" fill="#0A0E21"/>
</svg>
