<svg width="140" height="20" viewBox="0 0 140 20" fill="none" xmlns="http://www.w3.org/2000/svg">
<path d="M11.6435 5.12128C11.5361 4.04029 11.0601 3.18287 10.2165 2.54482C9.37083 1.90782 8.30713 1.58933 7.02858 1.58933C6.12707 1.58933 5.33402 1.7433 4.64841 2.05231C3.96596 2.36132 3.42883 2.78949 3.04022 3.33685C2.6537 3.88314 2.45993 4.50327 2.45993 5.19721C2.45993 5.70871 2.56945 6.15798 2.79062 6.54292C3.01073 6.92681 3.3088 7.25796 3.68373 7.53216C4.05865 7.80742 4.47571 8.0426 4.93279 8.23771C5.39197 8.43387 5.85218 8.59734 6.31873 8.73128L8.36188 9.31765C8.98009 9.4885 9.59726 9.70576 10.2165 9.97152C10.8337 10.2373 11.3992 10.5695 11.9132 10.9703C12.4271 11.371 12.841 11.8604 13.1528 12.4372C13.4645 13.0162 13.6214 13.7081 13.6214 14.517C13.6214 15.5526 13.3528 16.4839 12.8157 17.3107C12.2807 18.1365 11.5119 18.7914 10.5093 19.2755C9.50668 19.7585 8.30501 20 6.90429 20C5.58678 20 4.44201 19.7806 3.47099 19.3419C2.49997 18.9032 1.73746 18.2957 1.18139 17.5185C0.625319 16.7412 0.313573 15.8416 0.245117 14.8186H2.06184C2.12503 15.5843 2.37672 16.2297 2.818 16.7602C3.25928 17.2917 3.83327 17.6935 4.541 17.9688C5.24557 18.244 6.03438 18.3811 6.90429 18.3811C7.8711 18.3811 8.72735 18.2198 9.48142 17.8939C10.2365 17.568 10.8284 17.1135 11.2592 16.5292C11.691 15.9449 11.9068 15.2658 11.9068 14.4885C11.9068 13.8315 11.7362 13.2799 11.3961 12.8359C11.057 12.3898 10.582 12.0165 9.97217 11.7138C9.36449 11.4111 8.65993 11.1422 7.85847 10.9091L5.54046 10.2278C4.02074 9.7722 2.84119 9.14575 2.00392 8.34318C1.16455 7.54166 0.745378 6.51867 0.745378 5.2742C0.745378 4.23328 1.02343 3.31575 1.58266 2.52478C2.13979 1.7317 2.89699 1.11369 3.85326 0.66758C4.80743 0.221472 5.88168 0 7.07387 0C8.27869 0 9.34451 0.220416 10.2713 0.662306C11.1981 1.10525 11.9353 1.71272 12.4808 2.48576C13.0253 3.2588 13.3181 4.13837 13.3549 5.12339H11.6435V5.12128Z" fill="white"/>
<path d="M16.0996 1.86245V0.269958H30.1457V1.86245H24.0068V19.6688H22.2364V1.86245H16.0996Z" fill="white"/>
<path d="M46.6042 0.269958H48.3735V13.1143C48.3735 14.4347 48.065 15.6138 47.4468 16.6515C46.8285 17.6893 45.9692 18.5087 44.8686 19.1046C43.768 19.7015 42.4884 20 41.0319 20C39.5827 20 38.3042 19.7005 37.2015 19.1004C36.0989 18.4992 35.2374 17.6808 34.6192 16.6452C34.001 15.6117 33.6924 14.4326 33.6924 13.1122V0.269958H35.4617V12.9898C35.4617 14.0192 35.6913 14.9367 36.1505 15.7393C36.6118 16.545 37.2595 17.1778 38.0957 17.6387C38.9308 18.1006 39.9113 18.3305 41.0319 18.3305C42.1546 18.3305 43.1361 18.0995 43.9755 17.6387C44.8128 17.1767 45.4605 16.545 45.9186 15.7393C46.3757 14.9356 46.6042 14.0181 46.6042 12.9898V0.269958Z" fill="white"/>
<path d="M59.0407 19.6678H53.3652V0.269958H59.382C61.2292 0.269958 62.81 0.654895 64.1254 1.42583C65.4398 2.19571 66.4477 3.30096 67.148 4.74159C67.8484 6.1801 68.198 7.90864 68.198 9.92193C68.198 11.9553 67.84 13.6996 67.1238 15.155C66.4077 16.6104 65.3671 17.7262 64.0012 18.5024C62.6363 19.2797 60.9828 19.6678 59.0407 19.6678ZM55.1335 18.0774H58.9354C60.6005 18.0774 61.9938 17.7483 63.1165 17.0924C64.2381 16.4353 65.0796 15.4978 65.642 14.2786C66.2023 13.0616 66.4835 11.6083 66.4835 9.92193C66.4761 8.24928 66.2002 6.80972 65.6557 5.60322C65.1112 4.39672 64.3045 3.47181 63.2344 2.82743C62.1644 2.18517 60.8459 1.86139 59.2745 1.86139H55.1314L55.1335 18.0774Z" fill="white"/>
<path d="M74.1345 0.269958V19.6688H72.3652V0.269958H74.1345Z" fill="white"/>
<path d="M95.0938 9.96836C95.0938 11.9932 94.7358 13.7439 94.0196 15.2415C93.7037 15.8954 93.335 16.4754 92.9138 17.0027C92.7979 16.9289 92.6716 16.8551 92.5547 16.7813C92.1966 16.5492 91.8711 16.2645 91.5857 15.9481C91.9449 15.5052 92.2503 14.9989 92.5136 14.44C93.0928 13.1945 93.3761 11.7074 93.3761 9.96836C93.3761 8.23771 93.0812 6.74014 92.502 5.50728C92.2387 4.93778 91.9333 4.43155 91.5752 3.98966C91.4488 3.83147 91.3224 3.68382 91.1855 3.54672C90.8696 3.20924 90.5115 2.91289 90.1324 2.65978C90.0376 2.5965 89.9333 2.53427 89.8385 2.48049C89.6584 2.37502 89.4689 2.28117 89.2804 2.19574C88.501 1.84771 87.6479 1.66843 86.7106 1.66843C85.4468 1.66843 84.3199 2.00591 83.3099 2.65872C82.3094 3.31259 81.5195 4.26281 80.9298 5.49567C80.3495 6.74014 80.0557 8.22717 80.0557 9.96731C80.0557 11.7064 80.3495 13.1945 80.9298 14.4273C81.509 15.6729 82.2989 16.621 83.2994 17.2748C84.3104 17.9393 85.4468 18.2662 86.7222 18.2662C87.649 18.2662 88.501 18.0974 89.2814 17.7389C89.6921 18.2019 90.145 18.6142 90.64 18.9622C89.4804 19.6045 88.1756 19.9325 86.7117 19.9325C85.0793 19.9325 83.6364 19.5201 82.3842 18.7091C81.1204 17.8865 80.1294 16.737 79.4143 15.2394C78.6992 13.7418 78.3506 11.9911 78.3506 9.96625C78.3506 7.95191 78.6981 6.19068 79.4143 4.6931C80.1304 3.20608 81.1204 2.04598 82.3842 1.23391C83.647 0.411304 85.0898 0 86.7117 0C88.1766 0 89.471 0.326936 90.6305 0.980806C90.7674 1.05463 90.9149 1.139 91.0507 1.23391C91.0929 1.26555 91.1455 1.29825 91.1876 1.32883C91.6837 1.65682 92.126 2.03543 92.5357 2.47838C92.6726 2.62708 92.799 2.77367 92.9254 2.93292C93.3456 3.46024 93.7047 4.04029 94.0207 4.69416C94.7358 6.19279 95.0938 7.95402 95.0938 9.96836Z" fill="white"/>
<path d="M104.025 9.96837C104.025 11.9933 103.666 13.7439 102.949 15.2415C102.224 16.7391 101.233 17.8886 99.9804 18.7113C98.7271 19.5233 97.2737 19.9346 95.6413 19.9346C94.188 19.9346 92.882 19.6066 91.7235 18.9644C91.5751 18.88 91.4381 18.7956 91.3023 18.7113C91.2601 18.6796 91.218 18.6585 91.1759 18.6163C90.6809 18.2883 90.228 17.8981 89.8384 17.4552C89.6899 17.3075 89.5529 17.1599 89.4371 17.0017C89.0169 16.4744 88.6588 15.8943 88.3418 15.2405C87.6257 13.7429 87.2676 11.9922 87.2676 9.96732C87.2676 7.95298 87.6257 6.19174 88.3418 4.69417C88.6588 4.0403 89.0169 3.46025 89.4487 2.93294C89.5751 3.0057 89.6899 3.08058 89.8068 3.15441C90.1649 3.38643 90.4903 3.67118 90.7957 3.98757C90.4376 4.43051 90.1217 4.93568 89.8584 5.49569C89.2686 6.74015 88.9842 8.22718 88.9842 9.96732C88.9842 11.7064 89.2697 13.1945 89.8584 14.4273C90.1217 14.9968 90.4376 15.5136 90.7957 15.9566C90.9221 16.1148 91.0485 16.2624 91.1854 16.3995C91.5013 16.737 91.8489 17.0333 92.228 17.2748C92.3228 17.3392 92.4281 17.4014 92.5229 17.4541C92.7019 17.5607 92.8915 17.6545 93.08 17.7399C93.8594 18.0985 94.7135 18.2673 95.6403 18.2673C96.9146 18.2673 98.052 17.9393 99.0631 17.2759C100.064 16.622 100.864 15.6729 101.443 14.44C102.022 13.1945 102.307 11.7075 102.307 9.96837C102.307 8.23772 102.012 6.74015 101.433 5.50729C100.853 4.26283 100.052 3.31366 99.0525 2.65979C98.052 2.00697 96.9146 1.66949 95.6403 1.66949C94.7135 1.66949 93.8604 1.84878 93.08 2.19681C92.6798 1.74331 92.2269 1.3415 91.7425 0.98398C92.901 0.330109 94.1964 0.00317383 95.6392 0.00317383C97.2716 0.00317383 98.725 0.414482 99.9783 1.23709C101.241 2.05021 102.222 3.20925 102.947 4.69628C103.666 6.1928 104.025 7.95403 104.025 9.96837Z" fill="#CCE9EF"/>
<path d="M123.288 0.269958V19.6688H121.566L110.121 3.42541H109.969V19.6688H108.199V0.269958H109.911L121.394 16.5323H121.545V0.269958H123.288Z" fill="#CCE9EF"/>
<path d="M128.327 19.6678V0.269958H139.564V1.86245H130.096V9.16471H138.97V10.7551H130.096V18.0774H139.754V19.6688L128.327 19.6678Z" fill="#CCE9EF"/>
</svg>
