<svg width="140" height="20" viewBox="0 0 140 20" fill="none" xmlns="http://www.w3.org/2000/svg">
<path d="M11.3984 5.12128C11.291 4.04029 10.815 3.18287 9.97141 2.54482C9.12572 1.90782 8.06201 1.58933 6.78346 1.58933C5.88195 1.58933 5.08891 1.7433 4.40329 2.05231C3.72084 2.36132 3.18372 2.78949 2.7951 3.33685C2.40859 3.88314 2.21481 4.50327 2.21481 5.19721C2.21481 5.70871 2.32433 6.15798 2.5455 6.54292C2.76561 6.92681 3.06368 7.25796 3.43861 7.53216C3.81354 7.80742 4.2306 8.0426 4.68767 8.23771C5.14685 8.43387 5.60706 8.59734 6.07362 8.73128L8.11676 9.31765C8.73497 9.4885 9.35215 9.70576 9.97141 9.97152C10.5886 10.2373 11.1541 10.5695 11.6681 10.9703C12.182 11.371 12.5959 11.8604 12.9076 12.4372C13.2194 13.0162 13.3763 13.7081 13.3763 14.517C13.3763 15.5526 13.1077 16.4839 12.5706 17.3107C12.0356 18.1365 11.2668 18.7914 10.2642 19.2755C9.26156 19.7585 8.05989 20 6.65918 20C5.34166 20 4.19689 19.7806 3.22587 19.3419C2.25485 18.9032 1.49235 18.2957 0.936274 17.5185C0.380202 16.7412 0.0684559 15.8416 0 14.8186H1.81672C1.87991 15.5843 2.1316 16.2297 2.57288 16.7602C3.01416 17.2917 3.58815 17.6935 4.29588 17.9688C5.00045 18.244 5.78926 18.3811 6.65918 18.3811C7.62599 18.3811 8.48223 18.2198 9.2363 17.8939C9.99142 17.568 10.5833 17.1135 11.014 16.5292C11.4458 15.9449 11.6617 15.2658 11.6617 14.4885C11.6617 13.8315 11.4911 13.2799 11.151 12.8359C10.8118 12.3898 10.3368 12.0164 9.72705 11.7138C9.11937 11.4111 8.41481 11.1422 7.61335 10.9091L5.29534 10.2278C3.77562 9.7722 2.59607 9.14575 1.7588 8.34318C0.91943 7.54166 0.500261 6.51867 0.500261 5.2742C0.500261 4.23328 0.778311 3.31575 1.33754 2.52478C1.89467 1.7317 2.65187 1.11369 3.60815 0.66758C4.56232 0.221472 5.63656 0 6.82875 0C8.03357 0 9.09939 0.220416 10.0262 0.662306C10.953 1.10525 11.6902 1.71272 12.2357 2.48576C12.7802 3.2588 13.073 4.13837 13.1098 5.12339H11.3984V5.12128Z" fill="#0A0E21"/>
<path d="M15.8545 1.86245V0.269958H29.9006V1.86245H23.7617V19.6688H21.9913V1.86245H15.8545Z" fill="#0A0E21"/>
<path d="M46.3596 0.269958H48.1289V13.1143C48.1289 14.4347 47.8203 15.6138 47.2021 16.6515C46.5839 17.6893 45.7245 18.5087 44.624 19.1046C43.5234 19.7015 42.2438 20 40.7873 20C39.3381 20 38.0596 19.7005 36.9569 19.1004C35.8542 18.4992 34.9928 17.6808 34.3745 16.6452C33.7563 15.6117 33.4478 14.4326 33.4478 13.1122V0.269958H35.2171V12.9898C35.2171 14.0192 35.4467 14.9367 35.9059 15.7393C36.3672 16.545 37.0148 17.1778 37.851 17.6387C38.6862 18.1006 39.6667 18.3305 40.7873 18.3305C41.91 18.3305 42.8915 18.0995 43.7309 17.6387C44.5682 17.1767 45.2159 16.545 45.674 15.7393C46.1311 14.9356 46.3596 14.0181 46.3596 12.9898V0.269958Z" fill="#0A0E21"/>
<path d="M58.7951 19.6678H53.1196V0.269958H59.1364C60.9836 0.269958 62.5644 0.654895 63.8798 1.42583C65.1942 2.19571 66.2021 3.30096 66.9024 4.74159C67.6028 6.1801 67.9524 7.90864 67.9524 9.92193C67.9524 11.9553 67.5944 13.6996 66.8782 15.155C66.1621 16.6104 65.1215 17.7262 63.7556 18.5024C62.3907 19.2797 60.7372 19.6678 58.7951 19.6678ZM54.8879 18.0774H58.6898C60.3549 18.0774 61.7482 17.7483 62.8709 17.0924C63.9925 16.4353 64.834 15.4978 65.3964 14.2786C65.9567 13.0616 66.2379 11.6083 66.2379 9.92193C66.2305 8.24928 65.9546 6.80972 65.4101 5.60322C64.8656 4.39672 64.0589 3.47181 62.9888 2.82744C61.9188 2.18517 60.6003 1.86139 59.0289 1.86139H54.8858L54.8879 18.0774Z" fill="#0A0E21"/>
<path d="M73.8894 0.269958V19.6688H72.1201V0.269958H73.8894Z" fill="#0A0E21"/>
<path d="M94.8482 9.96836C94.8482 11.9932 94.4902 13.7439 93.774 15.2415C93.458 15.8954 93.0894 16.4754 92.6682 17.0027C92.5523 16.9289 92.426 16.8551 92.3091 16.7813C91.951 16.5492 91.6255 16.2645 91.3401 15.9481C91.6993 15.5052 92.0047 14.9989 92.268 14.44C92.8472 13.1945 93.1305 11.7074 93.1305 9.96836C93.1305 8.23771 92.8356 6.74014 92.2564 5.50728C91.9931 4.93778 91.6877 4.43155 91.3296 3.98966C91.2032 3.83147 91.0768 3.68382 90.9399 3.54672C90.624 3.20924 90.2659 2.91289 89.8867 2.65978C89.792 2.5965 89.6877 2.53427 89.5929 2.48049C89.4128 2.37502 89.2233 2.28117 89.0347 2.19574C88.2554 1.84771 87.4023 1.66843 86.465 1.66843C85.2012 1.66843 84.0743 2.00591 83.0643 2.65872C82.0638 3.31259 81.2739 4.26281 80.6842 5.49567C80.1039 6.74014 79.81 8.22717 79.81 9.96731C79.81 11.7064 80.1039 13.1945 80.6842 14.4273C81.2634 15.6729 82.0533 16.621 83.0538 17.2748C84.0648 17.9393 85.2012 18.2662 86.4766 18.2662C87.4034 18.2662 88.2554 18.0974 89.0358 17.7389C89.4465 18.2019 89.8994 18.6142 90.3944 18.9622C89.2348 19.6045 87.93 19.9325 86.4661 19.9325C84.8337 19.9325 83.3908 19.5201 82.1386 18.7091C80.8748 17.8865 79.8838 16.737 79.1687 15.2394C78.4536 13.7418 78.105 11.9911 78.105 9.96625C78.105 7.95191 78.4525 6.19068 79.1687 4.6931C79.8848 3.20608 80.8748 2.04598 82.1386 1.23391C83.4013 0.411304 84.8442 0 86.4661 0C87.931 0 89.2254 0.326936 90.3849 0.980806C90.5218 1.05463 90.6693 1.139 90.8051 1.23391C90.8472 1.26555 90.8999 1.29825 90.942 1.32883C91.4381 1.65682 91.8804 2.03543 92.2901 2.47838C92.427 2.62708 92.5534 2.77367 92.6798 2.93292C93.1 3.46024 93.4591 4.04029 93.7751 4.69416C94.4902 6.19279 94.8482 7.95402 94.8482 9.96836Z" fill="#0A0E21"/>
<path d="M103.779 9.96834C103.779 11.9932 103.421 13.7439 102.704 15.2415C101.978 16.7391 100.987 17.8886 99.7348 18.7112C98.4815 19.5233 97.0281 19.9346 95.3957 19.9346C93.9424 19.9346 92.6364 19.6066 91.4779 18.9643C91.3294 18.88 91.1925 18.7956 91.0567 18.7112C91.0145 18.6796 90.9724 18.6585 90.9303 18.6163C90.4353 18.2883 89.9824 17.8981 89.5928 17.4552C89.4443 17.3075 89.3073 17.1599 89.1915 17.0017C88.7713 16.4744 88.4132 15.8943 88.0962 15.2404C87.3801 13.7429 87.022 11.9922 87.022 9.96729C87.022 7.95294 87.3801 6.19171 88.0962 4.69414C88.4132 4.04027 88.7713 3.46022 89.2031 2.9329C89.3295 3.00567 89.4443 3.08055 89.5612 3.15438C89.9192 3.38639 90.2447 3.67115 90.5501 3.98753C90.192 4.43048 89.8761 4.93565 89.6128 5.49566C89.023 6.74012 88.7386 8.22715 88.7386 9.96729C88.7386 11.7064 89.0241 13.1945 89.6128 14.4273C89.8761 14.9968 90.192 15.5136 90.5501 15.9565C90.6765 16.1147 90.8028 16.2624 90.9398 16.3995C91.2557 16.737 91.6033 17.0333 91.9824 17.2748C92.0772 17.3391 92.1825 17.4014 92.2773 17.4541C92.4563 17.5606 92.6459 17.6545 92.8344 17.7399C93.6138 18.0985 94.4679 18.2672 95.3947 18.2672C96.669 18.2672 97.8064 17.9392 98.8175 17.2759C99.818 16.622 100.618 15.6728 101.198 14.44C101.777 13.1945 102.061 11.7074 102.061 9.96834C102.061 8.23769 101.766 6.74012 101.187 5.50726C100.608 4.26279 99.8064 3.31363 98.8069 2.65976C97.8064 2.00694 96.669 1.66946 95.3947 1.66946C94.4679 1.66946 93.6148 1.84875 92.8344 2.19678C92.4342 1.74328 91.9813 1.34147 91.4969 0.983949C92.6554 0.330079 93.9508 0.00314331 95.3936 0.00314331C97.026 0.00314331 98.4794 0.414451 99.7327 1.23706C100.995 2.05018 101.976 3.20922 102.702 4.69625C103.421 6.19277 103.779 7.954 103.779 9.96834Z" fill="#CCE9EF"/>
<path d="M123.043 0.269958V19.6688H121.321L109.876 3.42541H109.723V19.6688H107.954V0.269958H109.665L121.149 16.5324H121.3V0.269958H123.043Z" fill="#CCE9EF"/>
<path d="M128.082 19.6678V0.269958H139.319V1.86245H129.851V9.16471H138.725V10.7551H129.851V18.0774H139.509V19.6688L128.082 19.6678Z" fill="#CCE9EF"/>
</svg>
