<svg width="33" height="20" viewBox="0 0 33 20" fill="none" xmlns="http://www.w3.org/2000/svg">
<g clip-path="url(#clip0_259_143)">
<path d="M11.5358 5.14011C11.4271 4.05663 10.9453 3.19535 10.0905 2.55626C9.23565 1.91718 8.15914 1.59763 6.86412 1.59763C5.95175 1.59763 5.14916 1.75211 4.45635 2.06107C3.76461 2.37109 3.22209 2.80068 2.82878 3.35089C2.43761 3.89898 2.24043 4.52008 2.24043 5.21736C2.24043 5.73053 2.35128 6.18128 2.57618 6.56748C2.79894 6.95262 3.10058 7.28486 3.48002 7.55996C3.85947 7.83507 4.28048 8.07102 4.74413 8.26677C5.20778 8.46463 5.67462 8.62863 6.1468 8.76301L8.21456 9.35131C8.84022 9.52272 9.46481 9.74068 10.0905 10.0073C10.7151 10.274 11.2885 10.6062 11.8086 11.0093C12.3288 11.4104 12.7466 11.9024 13.0621 12.4811C13.3776 13.061 13.5364 13.7551 13.5364 14.5677C13.5364 15.6057 13.2646 16.54 12.7221 17.3695C12.1795 18.198 11.4015 18.8551 10.3868 19.3407C9.37102 19.8243 8.15594 20.0676 6.73941 20.0676C5.40603 20.0676 4.24744 19.8476 3.26365 19.4074C2.28093 18.9672 1.50925 18.3578 0.947547 17.578C0.38584 16.7981 0.0692807 15.8945 0 14.8682H1.8386C1.90255 15.6364 2.15729 16.2839 2.60389 16.8161C3.04942 17.3494 3.63138 17.7525 4.34657 18.0287C5.05962 18.3049 5.85795 18.4424 6.73941 18.4424C7.71681 18.4424 8.58441 18.2816 9.34757 17.9536C10.1107 17.6266 10.7108 17.1716 11.1467 16.5844C11.5837 15.9982 11.8022 15.3179 11.8022 14.5359C11.8022 13.8768 11.6296 13.3234 11.2853 12.879C10.941 12.4314 10.4603 12.0568 9.84426 11.7532C9.23032 11.4463 8.51726 11.1786 7.70615 10.9448L5.3602 10.2613C3.82216 9.80417 2.6284 9.17672 1.77998 8.37152C0.930493 7.56631 0.506282 6.54102 0.506282 5.29248C0.506282 4.24815 0.787668 3.32866 1.35257 2.5351C1.91748 1.73941 2.68383 1.11831 3.65056 0.670742C4.61729 0.223171 5.7034 0.000976562 6.90995 0.000976562C8.12929 0.000976562 9.20794 0.222115 10.1459 0.665455C11.0838 1.10985 11.8299 1.71931 12.3821 2.49489C12.9331 3.26941 13.2294 4.15185 13.2678 5.14011H11.5358Z" fill="white"/>
<path d="M33.0001 10.0042C33.0001 12.0315 32.6356 13.7933 31.9086 15.2926C31.1785 16.7908 30.1809 17.9494 28.9083 18.7684C27.6367 19.5884 26.1733 20 24.5201 20C22.867 20 21.4036 19.5884 20.1299 18.7684C18.8583 17.9494 17.8564 16.7908 17.1327 15.2926C16.4068 13.7933 16.0444 12.0315 16.0444 10.0042C16.0444 7.97693 16.4068 6.21416 17.1327 4.71591C17.8564 3.21765 18.8572 2.05798 20.1341 1.23796C21.4089 0.417946 22.8702 0.00634766 24.5169 0.00634766C26.1701 0.00634766 27.6335 0.417946 28.9072 1.23796C30.1788 2.05798 31.1807 3.21765 31.9065 4.71591C32.6366 6.21416 33.0001 7.97693 33.0001 10.0042ZM31.2585 10.0042C31.2585 8.26262 30.9654 6.76754 30.3781 5.52429C29.7908 4.28103 28.9893 3.3298 27.9756 2.67061C26.9599 2.01142 25.8087 1.68025 24.5201 1.68025C23.2358 1.68025 22.09 2.01142 21.0742 2.67061C20.0595 3.3298 19.2569 4.27997 18.6664 5.52005C18.0749 6.76224 17.7807 8.25627 17.7807 10.0053C17.7807 11.7469 18.0728 13.2388 18.6622 14.4799C19.2484 15.7221 20.0499 16.6734 21.0646 17.3347C22.0782 17.996 23.2315 18.3272 24.5201 18.3272C25.8087 18.3272 26.962 17.996 27.982 17.3368C28.9999 16.6776 29.8036 15.7274 30.3909 14.4831C30.9728 13.2388 31.2649 11.7469 31.2585 10.0042Z" fill="#CCE9EF"/>
</g>
<defs>
<clipPath id="clip0_259_143">
<rect width="33" height="20" fill="white"/>
</clipPath>
</defs>
</svg>
